<svg width="124" height="26" viewBox="0 0 124 26" fill="none" xmlns="http://www.w3.org/2000/svg">
<path d="M0 25.308V0H3.456L13.716 16.416H11.736L21.9599 0H25.416V25.308H20.556V8.388L21.492 8.676L14.364 20.124H11.052L3.924 8.676L4.896 8.388V25.308H0ZM34.186 25.308V21.312H40.7739C41.9499 21.312 42.8619 20.952 43.5099 20.232C44.1819 19.512 44.518 18.66 44.518 17.676C44.518 17.004 44.3739 16.392 44.0859 15.84C43.7979 15.288 43.366 14.856 42.79 14.544C42.238 14.208 41.5659 14.04 40.7739 14.04H34.186V10.08H40.234C41.242 10.08 42.046 9.828 42.646 9.324C43.27 8.82 43.582 8.064 43.582 7.056C43.582 6.024 43.27 5.256 42.646 4.752C42.046 4.248 41.242 3.996 40.234 3.996H34.186V0H40.81C42.49 0 43.8939 0.312 45.0219 0.936C46.1739 1.536 47.0379 2.34 47.6139 3.348C48.1899 4.332 48.478 5.412 48.478 6.588C48.478 8.028 48.034 9.276 47.146 10.332C46.282 11.364 45.0099 12.132 43.3299 12.636L43.546 11.052C45.418 11.58 46.858 12.456 47.866 13.68C48.898 14.88 49.414 16.332 49.414 18.036C49.414 19.38 49.0779 20.604 48.4059 21.708C47.7579 22.788 46.798 23.664 45.526 24.336C44.278 24.984 42.7539 25.308 40.9539 25.308H34.186ZM30.5859 25.308V0H35.4459V25.308H30.5859Z" fill="#3F8CDA"/>
<path d="M58.769 25.704C57.785 25.704 56.813 25.572 55.853 25.308C54.917 25.044 54.053 24.684 53.261 24.228C52.469 23.748 51.785 23.172 51.209 22.5L54.017 19.656C54.617 20.328 55.313 20.832 56.105 21.168C56.897 21.504 57.773 21.672 58.733 21.672C59.501 21.672 60.077 21.564 60.461 21.348C60.869 21.132 61.073 20.808 61.073 20.376C61.073 19.896 60.857 19.524 60.425 19.26C60.017 18.996 59.477 18.78 58.805 18.612C58.133 18.42 57.425 18.216 56.681 18C55.961 17.76 55.265 17.46 54.593 17.1C53.921 16.716 53.369 16.2 52.937 15.552C52.529 14.88 52.325 14.016 52.325 12.96C52.325 11.856 52.589 10.896 53.117 10.08C53.669 9.26404 54.449 8.62804 55.457 8.17204C56.465 7.71604 57.653 7.48804 59.021 7.48804C60.461 7.48804 61.757 7.74004 62.909 8.24404C64.085 8.74804 65.057 9.50404 65.825 10.512L62.981 13.356C62.453 12.708 61.853 12.24 61.181 11.952C60.533 11.664 59.825 11.52 59.057 11.52C58.361 11.52 57.821 11.628 57.437 11.844C57.077 12.06 56.897 12.36 56.897 12.744C56.897 13.176 57.101 13.512 57.509 13.752C57.941 13.992 58.493 14.208 59.165 14.4C59.837 14.568 60.533 14.772 61.253 15.012C61.997 15.228 62.693 15.54 63.341 15.948C64.013 16.356 64.553 16.896 64.961 17.568C65.393 18.24 65.609 19.104 65.609 20.16C65.609 21.864 64.997 23.22 63.773 24.228C62.549 25.212 60.881 25.704 58.769 25.704ZM76.9971 25.668C75.2211 25.668 73.6251 25.272 72.2091 24.48C70.7931 23.688 69.6771 22.608 68.8611 21.24C68.0451 19.872 67.6371 18.336 67.6371 16.632C67.6371 14.904 68.0451 13.356 68.8611 11.988C69.6771 10.62 70.7931 9.54004 72.2091 8.74804C73.6491 7.93204 75.2451 7.52404 76.9971 7.52404C78.3651 7.52404 79.6251 7.77604 80.7771 8.28004C81.9291 8.78404 82.9251 9.50404 83.7651 10.44L80.7411 13.5C80.2851 12.996 79.7331 12.612 79.0851 12.348C78.4611 12.084 77.7651 11.952 76.9971 11.952C76.1331 11.952 75.3531 12.156 74.6571 12.564C73.9851 12.948 73.4451 13.488 73.0371 14.184C72.6531 14.856 72.4611 15.66 72.4611 16.596C72.4611 17.508 72.6531 18.324 73.0371 19.044C73.4451 19.74 73.9851 20.292 74.6571 20.7C75.3531 21.084 76.1331 21.276 76.9971 21.276C77.7891 21.276 78.4971 21.144 79.1211 20.88C79.7691 20.592 80.3211 20.184 80.7771 19.656L83.8371 22.716C82.9491 23.676 81.9291 24.408 80.7771 24.912C79.6251 25.416 78.3651 25.668 76.9971 25.668ZM93.3931 25.668C91.8091 25.668 90.3811 25.272 89.1091 24.48C87.8371 23.688 86.8411 22.608 86.1211 21.24C85.4011 19.872 85.0411 18.336 85.0411 16.632C85.0411 14.904 85.4011 13.356 86.1211 11.988C86.8411 10.62 87.8371 9.54004 89.1091 8.74804C90.3811 7.95604 91.8091 7.56004 93.3931 7.56004C94.6411 7.56004 95.7571 7.81204 96.7411 8.31604C97.7251 8.82004 98.5051 9.52804 99.0811 10.44C99.6811 11.328 100.005 12.336 100.053 13.464V19.728C100.005 20.88 99.6811 21.9 99.0811 22.788C98.5051 23.676 97.7251 24.384 96.7411 24.912C95.7571 25.416 94.6411 25.668 93.3931 25.668ZM94.2571 21.312C95.5771 21.312 96.6451 20.88 97.4611 20.016C98.2771 19.128 98.6851 17.988 98.6851 16.596C98.6851 15.684 98.4931 14.88 98.1091 14.184C97.7491 13.464 97.2331 12.912 96.5611 12.528C95.9131 12.12 95.1451 11.916 94.2571 11.916C93.3931 11.916 92.6251 12.12 91.9531 12.528C91.3051 12.912 90.7891 13.464 90.4051 14.184C90.0451 14.88 89.8651 15.684 89.8651 16.596C89.8651 17.532 90.0451 18.36 90.4051 19.08C90.7891 19.776 91.3051 20.328 91.9531 20.736C92.6251 21.12 93.3931 21.312 94.2571 21.312ZM98.4331 25.308V20.628L99.1891 16.38L98.4331 12.204V7.92004H103.113V25.308H98.4331ZM118.985 25.308V15.336C118.985 14.304 118.661 13.464 118.013 12.816C117.365 12.168 116.525 11.844 115.493 11.844C114.821 11.844 114.221 11.988 113.693 12.276C113.165 12.564 112.745 12.972 112.433 13.5C112.145 14.028 112.001 14.64 112.001 15.336L110.165 14.4C110.165 13.032 110.453 11.844 111.029 10.836C111.629 9.80404 112.445 9.00004 113.477 8.42404C114.533 7.84804 115.721 7.56004 117.041 7.56004C118.313 7.56004 119.453 7.88404 120.461 8.53204C121.469 9.15604 122.261 9.98404 122.837 11.016C123.413 12.024 123.701 13.116 123.701 14.292V25.308H118.985ZM107.285 25.308V7.92004H112.001V25.308H107.285Z" fill="#2DBD85"/>
</svg>
